<?xml version="1.0" standalone="no"?>
<!DOCTYPE svg PUBLIC "-//W3C//DTD SVG 20010904//EN"
 "http://www.w3.org/TR/2001/REC-SVG-20010904/DTD/svg10.dtd">
<svg version="1.0" xmlns="http://www.w3.org/2000/svg"
 width="200.000000pt" height="200.000000pt" viewBox="0 0 200.000000 200.000000"
 preserveAspectRatio="xMidYMid meet">
<metadata>
Created by potrace 1.14, written by Peter Selinger 2001-2017
</metadata>
<g transform="translate(0.000000,200.000000) scale(0.100000,-0.100000)"
fill="#000000" stroke="none">
<path d="M1284 1549 c-52 -10 -107 -32 -147 -61 -27 -19 -45 -23 -112 -23
-104 -1 -170 -24 -234 -81 -97 -87 -130 -208 -92 -335 l22 -72 -57 -58 c-49
-50 -58 -64 -58 -95 0 -28 7 -42 28 -60 46 -40 79 -32 151 37 l63 60 46 -15
c60 -20 160 -20 219 0 61 21 141 93 175 158 22 43 27 65 28 138 2 76 5 91 28
120 38 50 67 123 73 182 5 45 2 56 -18 78 -28 31 -59 38 -115 27z m102 -45
c15 -22 16 -32 5 -77 -20 -87 -51 -138 -146 -237 -51 -52 -95 -103 -98 -112
-9 -24 -19 -23 -47 7 -13 14 -30 25 -37 25 -8 0 -16 8 -20 18 -3 9 -30 42 -60
73 l-54 55 118 115 c129 126 183 157 275 158 40 1 50 -3 64 -25z m-438 -297
l33 -34 -31 5 c-16 2 -36 -1 -44 -7 -10 -9 -16 -8 -26 4 -11 13 -9 20 10 40
13 14 24 25 25 25 0 0 16 -15 33 -33z m-27 -174 c9 -25 4 -32 -88 -125 -102
-103 -125 -117 -148 -98 -31 26 -15 54 82 152 106 106 135 120 154 71z"/>
<path d="M1149 1401 c-48 -48 -36 -111 27 -137 30 -13 38 -13 64 1 47 24 64
79 39 126 -13 26 -28 16 -22 -15 6 -31 -36 -76 -70 -76 -56 0 -60 68 -7 98 33
19 39 32 14 32 -8 0 -29 -13 -45 -29z"/>
<path d="M1183 1383 c-7 -2 -13 -11 -13 -19 0 -12 4 -12 20 -2 31 20 26 35 -7
21z"/>
<path d="M1274 637 c-2 -7 -3 -74 -2 -148 l3 -134 29 -3 c37 -5 46 10 46 81 0
36 4 56 10 52 6 -3 10 -35 10 -71 l0 -64 35 0 35 0 0 80 c0 111 -24 155 -71
130 -17 -10 -19 -7 -19 24 0 19 -3 41 -6 50 -7 19 -62 22 -70 3z"/>
<path d="M564 627 c-2 -7 -3 -71 -2 -143 l3 -129 39 -3 c42 -4 56 7 56 46 0
36 24 21 28 -17 3 -31 5 -32 45 -29 l42 3 0 140 0 140 -40 0 -40 0 -3 -62 c-2
-47 -7 -63 -17 -63 -11 0 -15 12 -15 39 0 68 -14 91 -55 91 -20 0 -38 -6 -41
-13z"/>
<path d="M829 549 c-26 -26 -20 -44 16 -44 15 0 30 -6 32 -12 3 -8 -5 -13 -20
-13 -33 0 -57 -30 -57 -72 0 -41 28 -72 55 -62 10 4 36 8 59 8 l41 1 0 88 c0
81 -2 90 -24 108 -30 25 -76 24 -102 -2z m51 -126 c0 -20 -3 -24 -11 -16 -7 7
-9 19 -6 27 10 24 17 19 17 -11z"/>
<path d="M1076 563 c-4 -5 -26 -8 -49 -8 l-42 0 0 -100 0 -100 29 -3 c37 -5
46 10 46 76 0 51 1 52 25 46 20 -5 25 -2 25 12 1 12 6 7 15 -14 8 -18 21 -35
30 -38 8 -3 15 -15 15 -25 0 -16 -3 -18 -19 -9 -27 14 -31 13 -31 -9 0 -23 36
-51 65 -51 11 0 31 7 43 16 29 20 32 96 4 116 -31 22 -36 38 -10 35 33 -3 30
33 -4 52 -21 12 -31 13 -53 3 -15 -7 -29 -22 -32 -33 -5 -19 -7 -18 -19 10
-13 31 -24 38 -38 24z"/>
</g>
</svg>
